PathFileType	4	(X/Y/Z)	D:\TRACE\v60_Jaco2_6-2-23\JustBodyDRS_Motion3_4-platform.trc
DataRate	CameraRate	NumFrames	NumMarkers	Units	OrigDataRate	OrigDataStartFrame	OrigNumFrames
100.00	100.00	      37	5	mm	100.00	1751	      7000
Frame#	Time	Left_Front			Right_Front			Left_Aft			Right_Aft			Post			
		X1	Y1	Z1	X2	Y2	Z2	X3	Y3	Z3	X4	Y4	Z4	X5	Y5	Z5	

1751	17.500	-799.79620	7.60485	-651.46558	770.70862	5.67377	-628.84332	-731.30347	12.77001	482.40683	683.31793	10.62095	588.06146	-3.73143	1304.10938	-968.59698	
1752	17.510	-799.96130	7.51409	-651.66187	770.65063	5.61688	-628.86438	-731.38354	12.90641	482.25638	683.27905	10.68532	588.02924	-3.77832	1304.10132	-969.04517	
1753	17.520	-800.10199	7.41931	-651.86438	770.57513	5.53128	-628.86548	-731.43079	12.98818	482.17343	683.19995	10.74702	588.04657	-3.98279	1304.04041	-969.64355	
1754	17.530	-800.25824	7.29016	-651.94647	770.49506	5.43386	-628.89667	-731.58923	12.87130	482.23422	682.96625	10.91586	588.05957	-4.15712	1303.79968	-969.99683	
1755	17.540	-800.32806	7.07508	-651.86786	770.39484	5.20503	-628.86835	-731.70667	12.89339	482.30658	682.82910	10.94717	588.08899	-4.38424	1303.53125	-970.33459	
1756	17.550	-800.75739	6.94313	-651.63885	770.27985	5.08189	-628.89111	-731.85834	12.97815	482.27612	682.62274	11.03897	588.06989	-4.48506	1303.22778	-970.66943	
1757	17.560	-800.91669	6.78323	-651.75958	770.25513	5.02560	-628.89703	-731.88776	13.10145	482.15213	682.52252	11.15685	587.99078	-4.47777	1303.05444	-970.91656	
1758	17.570	-801.02930	6.70062	-652.08240	770.17383	4.93458	-628.94574	-731.95844	13.24839	482.03113	682.44415	11.18207	587.97241	-4.47076	1302.89331	-971.07306	
1759	17.580	-800.89063	6.89221	-652.06464	770.00464	4.75800	-628.98853	-732.17645	13.51286	481.89673	682.32605	11.35187	587.85895	-4.49293	1302.69495	-971.07928	
1760	17.590	-800.90216	6.82658	-651.99237	769.82825	4.56905	-628.95728	-732.19916	13.27823	482.08685	682.25208	11.40069	587.82813	-4.54560	1302.50220	-971.05707	
1761	17.600	-800.93573	6.74377	-652.03607	769.75098	4.47727	-628.95538	-732.41217	13.29718	482.21243	682.17859	11.44485	587.82410	-4.63217	1302.31384	-971.12915	
1762	17.610	-800.97925	6.69726	-652.07172	769.69952	4.38531	-628.91809	-732.47736	13.39414	482.11856	682.14111	11.53077	587.81445	-4.71897	1302.19006	-971.24377	
1763	17.620	-801.09399	6.61939	-652.09937	769.69757	4.29152	-628.91248	-732.54010	13.47791	482.10413	682.10327	11.70570	587.73523	-4.78610	1302.08325	-971.46735	
1764	17.630	-801.24231	6.52527	-652.12378	769.59515	4.18867	-628.95374	-732.62024	13.53133	482.07419	682.05798	11.81482	587.55017	-4.96642	1301.96216	-971.65094	
1765	17.640	-801.39862	6.39810	-652.18481	769.41895	4.02056	-628.95605	-732.73175	13.51957	482.07138	681.78162	11.52370	587.73895	-5.20468	1301.84277	-971.91699	
1766	17.650	-801.53925	6.30068	-652.27368	769.26947	3.92197	-629.01367	-732.81409	13.50707	482.01956	681.72723	11.56432	587.70667	-5.34507	1301.74121	-972.17529	
1767	17.660	-801.65741	6.20636	-652.29504	769.41241	3.75159	-629.38129	-732.88837	13.52189	482.02524	681.59741	11.63096	587.71942	-5.46551	1301.66675	-972.48193	
1768	17.670	-801.72375	6.13374	-652.30090	768.99860	3.94572	-629.10822	-732.96289	13.55199	481.97385	681.43890	11.67493	587.68042	-5.57926	1301.53442	-972.82172	
1769	17.680	-801.77673	6.18009	-652.23322	768.82288	4.11048	-629.08392	-733.03662	13.56871	481.92114	681.41388	11.76181	587.68359	-5.64296	1301.49084	-973.16302	
1770	17.690	-801.81952	6.15785	-652.21179	768.75580	3.95729	-629.07086	-733.14270	13.65466	481.90961	681.22571	11.78044	587.62653	-5.82157	1301.48779	-973.25055	
1771	17.700	-801.95795	5.83538	-652.18683	768.72577	3.79079	-629.15222	-733.26624	13.71877	481.88306	680.99390	11.88780	587.61047	-5.84997	1301.30066	-973.34442	
1772	17.710	-802.09760	5.51796	-652.17310	768.64966	3.68106	-629.16998	-733.32507	13.72898	481.85413	680.72107	12.03575	587.52106	-5.71626	1301.09595	-973.36768	
1773	17.720	-802.16364	5.48432	-652.16791	768.46411	3.60653	-629.24628	-733.38354	13.77651	481.82446	680.53760	12.07279	587.41602	-5.76517	1300.85571	-973.40100	
1774	17.730	-802.27905	5.44808	-652.06366	768.35577	3.62952	-629.24780	-733.50232	13.90287	481.85657	680.37140	12.05746	587.38739	-5.76687	1300.85596	-973.54681	
1775	17.740	-802.28955	5.40396	-652.03503	768.29224	3.62213	-629.24042	-733.62653	14.00303	481.88165	680.41595	12.19297	587.34369	-5.92305	1300.89575	-973.76495	
1776	17.750	-802.41663	5.44361	-652.09009	768.17914	3.62269	-629.25360	-733.68024	14.01721	481.86700	680.30096	12.25538	587.61365	-6.27124	1300.89111	-973.99573	
1777	17.760	-802.56848	5.35464	-652.14789	768.00458	3.58663	-629.32928	-733.85223	14.09659	481.81769	680.45667	12.41300	587.24896	-6.55660	1300.75867	-974.09888	
1778	17.770	-802.70178	5.25041	-652.14410	767.88202	3.47387	-629.30139	-733.99664	14.02521	481.77719	680.12177	12.14210	587.13165	-6.48437	1300.69507	-974.31195	
1779	17.780	-802.79089	5.35451	-652.13171	767.80804	3.54897	-629.27203	-734.13953	14.05203	481.77704	680.57037	12.21747	587.12640	-6.51382	1300.70947	-974.35260	
1780	17.790	-802.90515	5.42113	-652.01129	767.66949	3.62358	-629.25885	-734.21069	14.11810	481.79330	680.15289	12.24045	587.43866	-6.66196	1300.97400	-974.36804	
1781	17.800	-802.98889	5.49188	-652.00055	767.56085	3.71544	-629.28876	-734.36438	14.11449	481.77994	680.10168	12.24893	587.46979	-6.96088	1301.05835	-974.21490	
1782	17.810	-803.16840	5.47004	-652.07330	767.48749	3.70998	-629.28497	-734.54675	14.03873	481.71896	680.00372	12.22975	587.42371	-7.24303	1300.94995	-974.00244	
1783	17.820	-803.27667	5.46971	-652.12177	767.38409	3.63736	-629.26941	-734.81500	14.22110	481.57040	679.84955	12.20483	587.41370	-7.41705	1300.89636	-973.85919	
1784	17.830	-803.35315	5.51117	-652.05975	767.27191	3.58535	-629.20929	-734.88104	14.22911	481.62518	679.74927	12.22258	587.41833	-7.18901	1300.82031	-973.49872	
1785	17.840	-803.32489	5.44130	-652.04578	767.21790	3.61159	-629.25836	-734.86212	14.28673	481.64252	679.70941	12.21809	587.48627	-7.28112	1300.84875	-973.19910	
1786	17.850	-803.41498	5.44781	-652.06885	767.15784	3.62524	-629.34863	-734.82684	14.26688	481.59857	679.74432	12.19674	587.49390	-7.33772	1300.96191	-973.03979	
1787	17.860	-803.53961	5.57010	-652.16376	767.12933	3.61340	-629.37024	-734.85974	14.25268	481.59845	679.57220	12.17116	587.45837	-7.58648	1300.97510	-973.06250	
